# xmcd
#
# Track frame offsets: 
#        150
#        13899
#        25675
#        38613
#        48734
#        61553
#        72344
#        86702
#        98198
#        110725
#        125544
#        138521
#        153900
#        163208
#
# Disc length: 2371 seconds
#
# Revision: 0
# Processed by: cddbd v1.5.2PL0 Copyright (c) Steve Scherf et al.
# Submitted via: ExactAudioCopy v1.0b1
#
DISCID=bc09410e
DTITLE=Nezmaři - Kdo si zpívá, má do ráje blíž
DYEAR=2007
DGENRE=Folk
TTITLE0=Jak to vlastně je
TTITLE1=Kdo si zpívá
TTITLE2=Žárlím
TTITLE3=Slova
TTITLE4=Touhy dlouhý
TTITLE5=Tvůj hlas
TTITLE6=Tak to bylo
TTITLE7=I básníci to maj těžký
TTITLE8=Krajina srdeční
TTITLE9=Jen pár dní
TTITLE10=Čtvero ročních období
TTITLE11=Fantazie
TTITLE12=O vodě a vínu
TTITLE13=Co je dobré
EXTD=
EXTT0=
EXTT1=
EXTT2=
EXTT3=
EXTT4=
EXTT5=
EXTT6=
EXTT7=
EXTT8=
EXTT9=
EXTT10=
EXTT11=
EXTT12=
EXTT13=
PLAYORDER=
